<svg id="aperture" xmlns="http://www.w3.org/2000/svg" width="34.691" height="34.691" viewBox="0 0 34.691 34.691">
  <path id="Trazado_521" data-name="Trazado 521" d="M244.265,13.92h1.311a17.343,17.343,0,0,0-12.135-9.143.917.917,0,0,1-.139.386l-.4.694-4.656,8.064h16.019Zm0,0" transform="translate(-212.781 -4.454)" fill="#ff7200"/>
  <path id="Trazado_522" data-name="Trazado 522" d="M1.542,131.737h9.915l-2.868-5-5.136-8.881-.662-1.126A17.34,17.34,0,0,0,0,126.171a17.14,17.14,0,0,0,.971,5.72A1.213,1.213,0,0,1,1.542,131.737Zm0,0" transform="translate(0 -108.825)" fill="#ff7200"/>
  <path id="Trazado_523" data-name="Trazado 523" d="M29.3,372.267H27.988A17.346,17.346,0,0,0,40.2,381.426a1.132,1.132,0,0,1,.155-.571l.294-.525h.016l4.641-8.064H29.3Zm0,0" transform="translate(-26.092 -347.042)" fill="#ff7200"/>
  <path id="Trazado_524" data-name="Trazado 524" d="M63.064,6.969l4.657,8.064,2.806-4.857.109-.2,5.088-8.819.648-1.14C76.078,0,75.77,0,75.476,0A17.211,17.211,0,0,0,62.355,6.029a1.469,1.469,0,0,1,.4.416Zm0,0" transform="translate(-58.13)" fill="#ff7200"/>
  <path id="Trazado_525" data-name="Trazado 525" d="M256.606,298.926a.945.945,0,0,1-.416-.4l-.308-.525-4.656-8.079-2.806,4.873-.139.262-5.059,8.757-.664,1.141c.309,0,.6.016.911.016A17.259,17.259,0,0,0,256.606,298.926Zm0,0" transform="translate(-226.124 -270.278)" fill="#ff7200"/>
  <path id="Trazado_526" data-name="Trazado 526" d="M352.825,171.739H342.91l2.868,5,5.134,8.881.664,1.126a17.34,17.34,0,0,0,2.791-9.436,17.14,17.14,0,0,0-.971-5.72A1.213,1.213,0,0,1,352.825,171.739Zm0,0" transform="translate(-319.676 -159.96)" fill="#ff7200"/>
</svg>
