<svg id="brightness" xmlns="http://www.w3.org/2000/svg" width="38.191" height="38.191" viewBox="0 0 38.191 38.191">
  <path id="Trazado_527" data-name="Trazado 527" d="M126.06,113.59a10.474,10.474,0,1,0,10.474,10.474A10.486,10.486,0,0,0,126.06,113.59Zm0,18.71V115.828a8.236,8.236,0,1,1,0,16.472Zm0,0" transform="translate(-106.964 -105.117)" fill="#ff7200"/>
  <path id="Trazado_528" data-name="Trazado 528" d="M242.119,426A1.119,1.119,0,0,0,241,427.119V431.3a1.119,1.119,0,1,0,2.238,0v-4.177A1.119,1.119,0,0,0,242.119,426Zm0,0" transform="translate(-223.023 -394.224)" fill="#ff7200"/>
  <path id="Trazado_529" data-name="Trazado 529" d="M433.136,241h-4.029a1.119,1.119,0,0,0,0,2.238h4.029a1.119,1.119,0,0,0,0-2.238Zm0,0" transform="translate(-396.064 -223.023)" fill="#ff7200"/>
  <path id="Trazado_530" data-name="Trazado 530" d="M6.267,242.119A1.119,1.119,0,0,0,5.148,241H1.119a1.119,1.119,0,1,0,0,2.238H5.148A1.119,1.119,0,0,0,6.267,242.119Zm0,0" transform="translate(0 -223.023)" fill="#ff7200"/>
  <path id="Trazado_531" data-name="Trazado 531" d="M404.945,124.713a1.114,1.114,0,0,0,.559-.15l3.422-1.976a1.119,1.119,0,1,0-1.119-1.938l-3.423,1.976a1.119,1.119,0,0,0,.56,2.088Zm0,0" transform="translate(-373.702 -111.51)" fill="#ff7200"/>
  <path id="Trazado_532" data-name="Trazado 532" d="M37.173,334.153l-3.49,2.015a1.119,1.119,0,1,0,1.119,1.938l3.49-2.015a1.119,1.119,0,0,0-1.119-1.938Zm0,0" transform="translate(-30.653 -309.089)" fill="#ff7200"/>
  <path id="Trazado_533" data-name="Trazado 533" d="M125.037,401.617a1.119,1.119,0,0,0-1.528.409l-2.015,3.489a1.119,1.119,0,1,0,1.938,1.119l2.015-3.489A1.119,1.119,0,0,0,125.037,401.617Zm0,0" transform="translate(-112.293 -371.521)" fill="#ff7200"/>
  <path id="Trazado_534" data-name="Trazado 534" d="M31.953,122.071l3.49,2.015a1.119,1.119,0,0,0,1.119-1.938l-3.49-2.015a1.119,1.119,0,0,0-1.119,1.938Zm0,0" transform="translate(-29.051 -111.033)" fill="#ff7200"/>
  <path id="Trazado_535" data-name="Trazado 535" d="M407.324,336.207l-3.552-2.051a1.119,1.119,0,0,0-1.119,1.938l3.552,2.051a1.119,1.119,0,1,0,1.119-1.938Zm0,0" transform="translate(-372.101 -309.092)" fill="#ff7200"/>
  <path id="Trazado_536" data-name="Trazado 536" d="M335.737,402.034a1.119,1.119,0,0,0-1.938,1.119l2.014,3.489a1.119,1.119,0,0,0,1.938-1.119Zm0,0" transform="translate(-308.761 -371.527)" fill="#ff7200"/>
  <path id="Trazado_537" data-name="Trazado 537" d="M242.119,6.266a1.119,1.119,0,0,0,1.119-1.119V1.119a1.119,1.119,0,1,0-2.238,0V5.147A1.119,1.119,0,0,0,242.119,6.266Zm0,0" transform="translate(-223.023)" fill="#ff7200"/>
  <path id="Trazado_538" data-name="Trazado 538" d="M334.2,37.33a1.118,1.118,0,0,0,1.528-.409l2.015-3.489a1.119,1.119,0,1,0-1.938-1.119L333.795,35.8A1.119,1.119,0,0,0,334.2,37.33Zm0,0" transform="translate(-308.758 -29.384)" fill="#ff7200"/>
  <path id="Trazado_539" data-name="Trazado 539" d="M123.508,36.92a1.119,1.119,0,1,0,1.938-1.119l-2.014-3.488a1.119,1.119,0,1,0-1.938,1.119Zm0,0" transform="translate(-112.293 -29.384)" fill="#ff7200"/>
</svg>
