<svg xmlns="http://www.w3.org/2000/svg" width="34.191" height="36.927" viewBox="0 0 34.191 36.927">
  <g id="idea" transform="translate(-2)">
    <path id="Trazado_541" data-name="Trazado 541" d="M21.625,8a11.623,11.623,0,0,0-4.1,22.5v6.223a.683.683,0,0,0,.684.684h.684v1.368a.683.683,0,0,0,.684.684h4.1a.683.683,0,0,0,.684-.684V37.4h.684a.683.683,0,0,0,.684-.684V30.5A11.623,11.623,0,0,0,21.625,8Zm2.051,28.037a.683.683,0,0,0-.684.684v1.368H20.257V36.721a.683.683,0,0,0-.684-.684H18.89V32.618H24.36v3.419Zm1.154-6.673a.684.684,0,0,0-.47.65V31.25H18.89V30.014a.683.683,0,0,0-.47-.65,10.257,10.257,0,1,1,6.412,0Z" transform="translate(-2.529 -2.529)" fill="#ff7200"/>
    <path id="Trazado_542" data-name="Trazado 542" d="M26.684,4.1a.683.683,0,0,0,.684-.684V.684A.684.684,0,1,0,26,.684V3.419A.683.683,0,0,0,26.684,4.1Z" transform="translate(-7.588)" fill="#ff7200"/>
    <path id="Trazado_543" data-name="Trazado 543" d="M49.419,24H46.684a.684.684,0,1,0,0,1.368h2.735a.684.684,0,1,0,0-1.368Z" transform="translate(-13.912 -7.588)" fill="#ff7200"/>
    <path id="Trazado_544" data-name="Trazado 544" d="M5.419,24H2.684a.684.684,0,0,0,0,1.368H5.419a.684.684,0,0,0,0-1.368Z" transform="translate(0 -7.588)" fill="#ff7200"/>
    <path id="Trazado_545" data-name="Trazado 545" d="M42.277,7.229,40.343,9.163a.684.684,0,1,0,.967.967L43.244,8.2a.684.684,0,0,0-.967-.967Z" transform="translate(-12.06 -2.222)" fill="#ff7200"/>
    <path id="Trazado_546" data-name="Trazado 546" d="M11.163,38.343,9.229,40.277a.684.684,0,1,0,.967.967L12.13,39.31a.684.684,0,0,0-.967-.967Z" transform="translate(-2.222 -12.06)" fill="#ff7200"/>
    <path id="Trazado_547" data-name="Trazado 547" d="M41.31,38.343a.684.684,0,0,0-.967.967l1.934,1.934a.684.684,0,0,0,.967-.967Z" transform="translate(-12.06 -12.06)" fill="#ff7200"/>
    <path id="Trazado_548" data-name="Trazado 548" d="M11.163,10.13a.684.684,0,1,0,.967-.967L10.2,7.229a.684.684,0,0,0-.967.967Z" transform="translate(-2.222 -2.222)" fill="#ff7200"/>
    <path id="Trazado_549" data-name="Trazado 549" d="M23.206,13A8.215,8.215,0,0,0,15,21.206a.684.684,0,1,0,1.368,0,6.846,6.846,0,0,1,6.838-6.838.684.684,0,0,0,0-1.368Z" transform="translate(-4.11 -4.11)" fill="#ff7200"/>
  </g>
</svg>
