<svg id="logo-inhouse" xmlns="http://www.w3.org/2000/svg" width="82.641" height="16.984" viewBox="0 0 82.641 16.984">
  <g id="Grupo_70" data-name="Grupo 70" transform="translate(0 0)">
    <path id="Trazado_494" data-name="Trazado 494" d="M1009.569,85.537a4.668,4.668,0,0,0,.194,1.348,3.326,3.326,0,0,0,.584,1.138,2.813,2.813,0,0,0,.984.779,3.206,3.206,0,0,0,1.419.29,3.092,3.092,0,0,0,1.842-.5,2.95,2.95,0,0,0,1.041-1.5h2.471a5.047,5.047,0,0,1-.709,1.743,4.993,4.993,0,0,1-1.213,1.29,5.22,5.22,0,0,1-1.59.79,6.325,6.325,0,0,1-1.842.267,6.189,6.189,0,0,1-2.471-.464,5.106,5.106,0,0,1-1.819-1.3,5.55,5.55,0,0,1-1.121-2,8.242,8.242,0,0,1-.377-2.555,7.329,7.329,0,0,1,.4-2.428,6.231,6.231,0,0,1,1.144-2.022,5.485,5.485,0,0,1,1.8-1.382,5.386,5.386,0,0,1,2.38-.511,5.237,5.237,0,0,1,2.506.592,5.529,5.529,0,0,1,1.842,1.568,6.4,6.4,0,0,1,1.064,2.242,6.975,6.975,0,0,1,.171,2.614h-8.694Zm6.086-1.742a4.374,4.374,0,0,0-.263-1.208,3.229,3.229,0,0,0-.6-1.01,2.958,2.958,0,0,0-.915-.7,2.668,2.668,0,0,0-1.2-.267,3.094,3.094,0,0,0-1.247.244,2.837,2.837,0,0,0-.961.674,3.335,3.335,0,0,0-.641,1.01,3.55,3.55,0,0,0-.263,1.255Z" transform="translate(-935.674 -74.199)" fill="#fff"/>
    <path id="Trazado_495" data-name="Trazado 495" d="M501.192,91.192a6.36,6.36,0,0,1-2.528-.476,5.393,5.393,0,0,1-1.876-1.312,5.63,5.63,0,0,1-1.167-2,8.286,8.286,0,0,1,0-5.088,5.631,5.631,0,0,1,1.167-2,5.388,5.388,0,0,1,1.876-1.313,6.951,6.951,0,0,1,5.056,0,5.4,5.4,0,0,1,1.876,1.313,5.639,5.639,0,0,1,1.167,2,8.286,8.286,0,0,1,0,5.088,5.63,5.63,0,0,1-1.167,2,5.383,5.383,0,0,1-1.876,1.312,6.36,6.36,0,0,1-2.528.476m0-2.091a2.96,2.96,0,0,0,1.51-.372,3.2,3.2,0,0,0,1.052-.976,4.288,4.288,0,0,0,.606-1.359,6.194,6.194,0,0,0,0-3.078,4.152,4.152,0,0,0-.606-1.359,3.249,3.249,0,0,0-1.052-.964,3.252,3.252,0,0,0-3.021,0,3.242,3.242,0,0,0-1.052.964,4.149,4.149,0,0,0-.607,1.359,6.192,6.192,0,0,0,0,3.078,4.272,4.272,0,0,0,.607,1.359,3.2,3.2,0,0,0,1.052.976,2.953,2.953,0,0,0,1.51.372" transform="translate(-460.896 -74.209)" fill="#fff"/>
    <path id="Trazado_496" data-name="Trazado 496" d="M23.394,84.551a1.9,1.9,0,0,1-1.3-.521V95.97H24.7V84.03a1.9,1.9,0,0,1-1.3.521" transform="translate(-21.939 -79.311)" fill="#fff"/>
    <path id="Trazado_497" data-name="Trazado 497" d="M22.911,33.308a1.456,1.456,0,1,1-1.455-1.478,1.467,1.467,0,0,1,1.455,1.478" transform="translate(-20 -30.882)" fill="#fff"/>
    <path id="Trazado_498" data-name="Trazado 498" d="M87.67,78.855h2.471v1.766l.045.046A4.4,4.4,0,0,1,91.742,79.1a4.1,4.1,0,0,1,2.128-.569,4.381,4.381,0,0,1,3.066,1.022,3.948,3.948,0,0,1,1.121,3.067v8.248H95.449V83.316a3.3,3.3,0,0,0-.6-2.056,2.143,2.143,0,0,0-1.716-.639,2.8,2.8,0,0,0-1.19.244,2.571,2.571,0,0,0-.892.674,3.187,3.187,0,0,0-.572,1.01,3.661,3.661,0,0,0-.206,1.231v7.087H87.67Z" transform="translate(-82.782 -74.209)" fill="#fff"/>
    <path id="Trazado_499" data-name="Trazado 499" d="M263.281,209.9a1.456,1.456,0,1,1-1.455-1.478,1.467,1.467,0,0,1,1.455,1.478" transform="translate(-243.009 -194.717)" fill="#fff"/>
    <path id="Trazado_500" data-name="Trazado 500" d="M330.572,25.019a4.163,4.163,0,0,1,3.8-2.073,4.008,4.008,0,0,1,3.6,1.773,5.444,5.444,0,0,1,.55,2.922V35.36h-2.672V28.041a3.4,3.4,0,0,0-.375-2,2.228,2.228,0,0,0-1.973-.874,2.7,2.7,0,0,0-2.573,1.6,6.4,6.4,0,0,0-.35,2.822v5.77H327.9V18.7h2.672Z" transform="translate(-305.661 -18.7)" fill="#fff"/>
    <path id="Trazado_501" data-name="Trazado 501" d="M692.575,94.384h-2.5v-1.8a4.606,4.606,0,0,1-4,2.123,4.211,4.211,0,0,1-3.3-1.374,4.773,4.773,0,0,1-.824-3.272V82.32h2.672v6.893a4.338,4.338,0,0,0,.35,2.373,2.167,2.167,0,0,0,1.948.9,2.8,2.8,0,0,0,2.573-1.549,5.628,5.628,0,0,0,.4-2.7V82.32h2.672Z" transform="translate(-634.148 -77.725)" fill="#fff"/>
    <path id="Trazado_502" data-name="Trazado 502" d="M852.852,81.642c-.175-1.324-.949-1.873-2.6-1.873-1.374,0-2.173.524-2.173,1.4,0,.9.474,1.174,3.072,1.723a9.081,9.081,0,0,1,3.5,1.249,2.938,2.938,0,0,1,1.2,2.448c0,2.423-2.048,3.947-5.27,3.947-3.422,0-5.27-1.424-5.42-4.2h2.548c.175,1.523,1.1,2.222,2.922,2.222,1.574,0,2.6-.7,2.6-1.749,0-.9-.55-1.249-2.873-1.8-2.447-.55-2.772-.649-3.472-1.049a2.847,2.847,0,0,1-1.449-2.572c0-2.223,1.848-3.572,4.92-3.572a5.427,5.427,0,0,1,4.2,1.5,3.592,3.592,0,0,1,.849,2.322h-2.548Z" transform="translate(-785.561 -73.55)" fill="#fff"/>
  </g>
</svg>
